<svg id="Capa_1" data-name="Capa 1" xmlns="http://www.w3.org/2000/svg" viewBox="0 0 512 512"><defs><style>.cls-1{fill:#2c8979;stroke:#002922;stroke-miterlimit:10;stroke-width:20px;}.cls-2{fill:#9bcd69;}.cls-3{fill:#7dbe42;}.cls-4{fill:#282528;}.cls-5{fill:#675e67;}.cls-6{fill:#f8f6fa;}.cls-7{fill:#58883d;}</style></defs><title>alligator</title><circle class="cls-1" cx="255.12" cy="255.12" r="212.6"/><path class="cls-2" d="M392.34,277l-53.08,53.07a119,119,0,0,1-168.29,0L140.92,300l-23-23a25.08,25.08,0,0,1,0-35.46l37.19-37.19a41.73,41.73,0,0,1,59.76-50.5,99,99,0,0,1,39.43-8.53h.27a99.14,99.14,0,0,1,40.86,8.54,41.73,41.73,0,0,1,59.75,50.5l37.19,37.19a25.08,25.08,0,0,1,0,35.46Z"/><path class="cls-3" d="M234.29,199.38s-10.12,3.45-11,20.82c0,0-8.34,6.64-.83,17.38,0,0-18.91-3.4-26.25,20.8,0,0-9.77,35.91,2.26,48-.3-.17-10-5.6-13.64-16.44-3.72-11-8.69-46.63-37.9-34.78-15.51,6.29-12.39,26.92-6.05,44.9l-23-23a25.08,25.08,0,0,1,0-35.46l37.19-37.19a41.73,41.73,0,0,1,59.76-50.5,99,99,0,0,1,39.43-8.53c-23.5.25-22.68,34.62-20,54.06Z"/><path class="cls-4" d="M188.61,168.92c-7.32,0-13.27,8.9-13.27,19.83s5.95,19.84,13.27,19.84,13.27-8.9,13.27-19.84S195.93,168.92,188.61,168.92Z"/><path class="cls-4" d="M321.63,168.92c-7.32,0-13.27,8.9-13.27,19.83s5.95,19.84,13.27,19.84,13.27-8.9,13.27-19.84S328.94,168.92,321.63,168.92Z"/><circle class="cls-5" cx="222.5" cy="264.55" r="11.79"/><circle class="cls-5" cx="287.74" cy="264.55" r="11.79"/><path class="cls-3" d="M314.71,268.92a4.37,4.37,0,0,1-4.37-4.37,22.61,22.61,0,0,0-44.81-4.26,10.6,10.6,0,0,1-20.83,0,22.61,22.61,0,0,0-44.81,4.27,4.36,4.36,0,1,1-8.72,0,31.34,31.34,0,0,1,62.11-5.91,1.87,1.87,0,0,0,3.68,0,31.34,31.34,0,0,1,62.11,5.91,4.37,4.37,0,0,1-4.36,4.37Z"/><path class="cls-3" d="M255.11,338.89c24.72-1,24.16-17.17,51.32-17.17s17.22-27.85,42.3-36.93,19-26.41,19-26.41C357.4,248,337,252.77,330.19,275.23c-5.35,17.68-10,33.85-27,31.87-27.51-3.22-27.51,15.81-48.06,15.81s-20.54-19-48.05-15.81c-17,2-21.67-14.19-27-31.87-6.8-22.46-27.21-27.2-37.56-16.85,0,0-6.06,17.32,19,26.41s15.15,36.93,42.3,36.93,26.6,16.18,51.32,17.17"/><path class="cls-6" d="M230.4,339.88c-2.17,2.63-9.83,1.53-17.58-6-6-5.75-12.16-15.53-14.3-27.55a19,19,0,0,0,8.54.76c8.17-1,13.91,0,18.49,1.94,2.32,14.47,8.23,26.18,4.85,30.84Z"/><path class="cls-6" d="M181.15,278.89h0c-4.47,11-4.84,21.8-9,23.69-2.43.92-7.08-2.7-9.35-10.6a39.42,39.42,0,0,1,4.15-30.4,35.42,35.42,0,0,1,2.13-3.43c4.64,3.63,8.63,9.29,11,17.07.38,1.23.74,2.45,1.11,3.66Z"/><path class="cls-3" d="M300,226.51a4.84,4.84,0,0,1-.75-.06,255.73,255.73,0,0,0-88.3,0,4.36,4.36,0,0,1-1.5-8.6,264.61,264.61,0,0,1,91.3,0,4.36,4.36,0,0,1-.75,8.66Z"/><path class="cls-3" d="M289.76,206.75a4.88,4.88,0,0,1-.76-.07,196.68,196.68,0,0,0-67.76,0,4.36,4.36,0,0,1-1.5-8.6,205.07,205.07,0,0,1,70.76,0,4.37,4.37,0,0,1-.74,8.67Z"/><path class="cls-6" d="M279.84,339.88c2.17,2.63,9.83,1.53,17.58-6,6.05-5.75,12.15-15.53,14.3-27.55a19.05,19.05,0,0,1-8.54.76c-8.17-1-13.92,0-18.49,1.94-2.32,14.47-8.23,26.18-4.85,30.84Z"/><path class="cls-6" d="M329.09,278.89h0c4.47,11,4.84,21.8,9,23.69,2.43.92,7.08-2.7,9.35-10.6a39.47,39.47,0,0,0-4.15-30.4,37.49,37.49,0,0,0-2.13-3.43c-4.64,3.63-8.63,9.29-11,17.07q-.57,1.84-1.11,3.66Z"/><path class="cls-7" d="M255.12,327.27c-10.6,0-16.7-4.53-22.08-8.54-6.41-4.76-11.94-8.88-25.48-7.3-9.21,1.07-16.55-2.35-21.83-10.19-4.31-6.38-6.89-14.92-9.63-23.95l-.23-.79c-4.23-14-13.06-17.59-16.66-18.49a14,14,0,0,0-13.64,3.45,4.36,4.36,0,0,1-6.17-6.17,22.83,22.83,0,0,1,21.94-5.75c10.49,2.64,19,11.77,22.88,24.43l.24.79c5.7,18.86,9.54,29.46,22.09,28,17-2,24.8,3.84,31.7,9,5.11,3.81,9.16,6.82,16.87,6.82s11.75-3,16.88-6.82A49.93,49.93,0,0,1,283,305c5.92-2.44,12.67-3.17,20.66-2.24a14.68,14.68,0,0,0,6.61-.54c7.32-2.51,10.94-12.57,14.59-24.49l0-.11L326,274c2.46-8.12,6.77-14.78,12.47-19.24,10.32-8.09,23.93-7.85,32.35.57a4.36,4.36,0,1,1-6.17,6.17c-5.34-5.34-13.89-5.29-20.8.13-4.28,3.35-7.56,8.5-9.5,14.91l-1.08,3.55,0,.12c-4.37,14.3-8.91,26.45-20.13,30.3a23.51,23.51,0,0,1-10.45,1c-6.57-.77-11.76-.25-16.33,1.64a42,42,0,0,0-9.14,5.66C271.82,322.73,265.72,327.27,255.12,327.27Z"/></svg>