<svg id="Capa_1" data-name="Capa 1" xmlns="http://www.w3.org/2000/svg" viewBox="0 0 512 512"><defs><style>.cls-1{fill:#64c9d6;stroke:#12464c;stroke-miterlimit:10;stroke-width:20px;}.cls-2{fill:#c17d50;}.cls-3{fill:#995f33;}.cls-4{fill:#e5946c;}.cls-5{fill:#282628;}.cls-6{fill:#f8f5f9;}.cls-7{fill:#dfdde2;}.cls-8{fill:#dd6a38;}.cls-9{fill:#675e67;}.cls-10{fill:#464146;}</style></defs><title>beaver</title><circle class="cls-1" cx="255.12" cy="255.12" r="212.6"/><ellipse class="cls-2" cx="334.14" cy="163.32" rx="47.11" ry="34.76" transform="translate(-17.61 284.11) rotate(-45)"/><path class="cls-3" d="M371.5,135.17c-14.29-8.46-36.44-3.51-52.71,12.75S297.58,186.34,306,200.64a25.74,25.74,0,0,1-5.19-4c-13.58-13.57-9.67-39.5,8.73-57.9s44.33-22.31,57.9-8.73A26,26,0,0,1,371.5,135.17Z"/><ellipse class="cls-4" cx="337.29" cy="170.99" rx="25.22" ry="18.61" transform="translate(-22.12 288.58) rotate(-45)"/><ellipse class="cls-2" cx="176.06" cy="163.3" rx="34.76" ry="47.11" transform="translate(-63.9 172.32) rotate(-45)"/><path class="cls-3" d="M138.73,135.17c14.3-8.46,36.45-3.51,52.72,12.75s21.2,38.42,12.75,52.72a26,26,0,0,0,5.19-4c13.57-13.57,9.67-39.5-8.74-57.9S156.33,116.4,142.76,130A26,26,0,0,0,138.73,135.17Z"/><ellipse class="cls-4" cx="172.91" cy="170.97" rx="18.61" ry="25.22" transform="translate(-70.25 172.34) rotate(-45)"/><path class="cls-2" d="M366.42,239.86a83.88,83.88,0,0,1-9.81-24.68c-9.19-39.29-51.13-69-101.49-69s-92.31,29.68-101.5,69a83.86,83.86,0,0,1-9.8,24.68,87.86,87.86,0,0,0-13.15,45.93c0,56.64,55.72,102.56,124.45,102.56s124.45-45.92,124.45-102.56A87.86,87.86,0,0,0,366.42,239.86Z"/><path class="cls-3" d="M254.24,388.34C185.91,388,130.67,342.19,130.67,285.8a87.87,87.87,0,0,1,13.15-45.94,84,84,0,0,0,9.8-24.68c9.19-39.29,51.14-69,101.5-69-27.44,0-50.31,29.68-55.32,69a131.29,131.29,0,0,1-5.34,24.68,146.62,146.62,0,0,0-7.16,45.94c0,56.19,29.89,101.83,66.94,102.54Z"/><path class="cls-5" d="M190.6,229.1c-6.81,0-12.35,8.29-12.35,18.47S183.79,266,190.6,266,203,257.75,203,247.57,197.42,229.1,190.6,229.1Z"/><path class="cls-5" d="M318.55,229.1c-6.81,0-12.36,8.29-12.36,18.47S311.74,266,318.55,266s12.36-8.29,12.36-18.47S325.36,229.1,318.55,229.1Z"/><path class="cls-6" d="M274.22,371.49H254.55l-8.06-20.39,8.06-45.62H283.9Z"/><path class="cls-7" d="M234.88,371.49h19.67v-66H225.2Z"/><path class="cls-4" d="M280.05,263.1H229.14a25.45,25.45,0,0,0-25.46,25.45v19.07a25.46,25.46,0,1,0,50.91,0,25.46,25.46,0,1,0,50.91,0V288.55A25.45,25.45,0,0,0,280.05,263.1Z"/><path class="cls-8" d="M237.81,331.56a25.46,25.46,0,0,1-34.13-23.93V288.55a25.46,25.46,0,0,1,25.46-25.46h17.35A25.46,25.46,0,0,0,221,288.55v19.08a25.45,25.45,0,0,0,16.78,23.93Z"/><path class="cls-9" d="M266.18,242.28H243a20.82,20.82,0,1,0,0,41.64h23.18a20.82,20.82,0,0,0,0-41.64Z"/><path class="cls-10" d="M248.61,277.82a20.75,20.75,0,0,0,14.73,6.1H243a20.82,20.82,0,1,1,0-41.64h20.34a20.82,20.82,0,0,0-14.73,35.54Z"/></svg>