<svg id="Capa_1" data-name="Capa 1" xmlns="http://www.w3.org/2000/svg" viewBox="0 0 512 512"><defs><style>.cls-1{fill:#619b42;stroke:#0d3603;stroke-miterlimit:10;stroke-width:20px;}.cls-2{fill:#ebaf4a;}.cls-3{fill:#e29d48;}.cls-4{fill:#ffc853;}.cls-5{fill:#f4dcb5;}.cls-6{fill:#f9ebc8;}.cls-7{fill:#5f5461;}.cls-8{fill:#4c404f;}.cls-9{fill:#fff;}.cls-10{fill:#f37f88;}.cls-11{fill:#e6656f;}.cls-12{fill:#d4b092;}</style></defs><title>cat</title><circle class="cls-1" cx="255.12" cy="255.12" r="212.6"/><path class="cls-2" d="M351.3,122.49a19.33,19.33,0,0,1,24.14,19.34c-.63,16-8.58,44.53-25.77,61.72L293.8,156.27C315.29,134.78,338,125.86,351.3,122.49Z"/><path class="cls-3" d="M307.39,167.77c19.76-19.57,41.94-33.39,49.39-34.87,7.64-1.52,13.41,7.64,11.44,18.4-2.31,12.54-12.07,34.86-23.35,48.19Z"/><path class="cls-2" d="M158.93,122.49a19.32,19.32,0,0,0-24.13,19.34c.63,16,8.58,44.53,25.77,61.72l55.87-47.28C195,134.78,172.25,125.86,158.93,122.49Z"/><path class="cls-3" d="M202.84,167.77c-19.75-19.57-41.94-33.39-49.38-34.87-7.64-1.52-13.41,7.64-11.44,18.4,2.3,12.54,12.06,34.86,23.35,48.19Z"/><path class="cls-4" d="M255.12,143.38c-141.83,0-124.64,163.31-124.64,163.31l16.3-6a198.54,198.54,0,0,0,13.79,61.87l12.35-14.5c9.14,17.19,26.33,31.69,26.33,31.69l12.89-17.19h85.95L311,379.75s17.19-14.5,26.32-31.69l12.36,14.5a198.54,198.54,0,0,0,13.79-61.87l16.29,6S396.94,143.38,255.12,143.38Z"/><path class="cls-2" d="M169.16,242.23c0-35.9,15.18-68.36,39.64-91.74-91.44,31.41-78.32,156.2-78.32,156.2l16.3-6a198.54,198.54,0,0,0,13.79,61.87l12.35-14.5c9.14,17.19,26.33,31.69,26.33,31.69l12.89-17.19h42.42C204.62,344,169.16,297.11,169.16,242.23Z"/><path class="cls-2" d="M304.5,371.1l6.49,8.65a133.09,133.09,0,0,0,10.19-9.9A136.65,136.65,0,0,1,304.5,371.1Z"/><path class="cls-5" d="M140.8,221.74c-14.79,41.9-10.32,84.95-10.32,84.95l16.3-6a198.54,198.54,0,0,0,13.79,61.87l12.35-14.5c9.14,17.19,26.33,31.69,26.33,31.69l12.89-17.19C184.78,339.11,125.45,294.32,140.8,221.74Z"/><path class="cls-6" d="M369.46,221.74c14.79,41.9,10.31,84.95,10.31,84.95l-16.3-6a198.21,198.21,0,0,1-13.79,61.87l-12.35-14.5C328.2,365.25,311,379.75,311,379.75l-12.9-17.19C325.47,339.11,384.8,294.32,369.46,221.74Z"/><path class="cls-5" d="M255.12,349.67l-42.53,9.86a34.4,34.4,0,0,0,33.93,28.82h17.19a34.39,34.39,0,0,0,33.9-28.62Z"/><path class="cls-7" d="M190.35,312.06a4.81,4.81,0,0,1-2.25-.56,65.52,65.52,0,0,1-7.47-4.65,5.59,5.59,0,0,1-1.35-7.46,4.86,4.86,0,0,1,7-1.44,55,55,0,0,0,6.32,3.93,5.53,5.53,0,0,1,2.26,7.21A5,5,0,0,1,190.35,312.06Z"/><path class="cls-7" d="M170.16,296.1a5.9,5.9,0,0,1-4.63-2.28,80.77,80.77,0,0,1-13.24-23.77,6.53,6.53,0,0,1,3.83-8.15,6,6,0,0,1,7.66,4.06,69,69,0,0,0,11,19.52,6.74,6.74,0,0,1-.69,9.09A5.9,5.9,0,0,1,170.16,296.1Z"/><path class="cls-7" d="M315.59,312.06a5,5,0,0,1-4.52-3,5.53,5.53,0,0,1,2.26-7.21,55,55,0,0,0,6.32-3.93,4.86,4.86,0,0,1,7,1.44,5.59,5.59,0,0,1-1.35,7.46,65.52,65.52,0,0,1-7.47,4.65A4.81,4.81,0,0,1,315.59,312.06Z"/><path class="cls-7" d="M335.78,296.1a5.88,5.88,0,0,1-3.92-1.53,6.74,6.74,0,0,1-.69-9.09,68.85,68.85,0,0,0,11-19.53,6,6,0,0,1,7.67-4,6.53,6.53,0,0,1,3.82,8.14,80.67,80.67,0,0,1-13.25,23.77A5.86,5.86,0,0,1,335.78,296.1Z"/><path class="cls-7" d="M199.25,190.21a5.37,5.37,0,0,1-2.89-9.9,99.48,99.48,0,0,1,9.09-5.14,5.37,5.37,0,0,1,4.79,9.62,88.93,88.93,0,0,0-8.1,4.58A5.36,5.36,0,0,1,199.25,190.21Z"/><path class="cls-7" d="M285.2,202a5.32,5.32,0,0,1-2.09-.43c-17.09-7.23-38.89-7.23-56,0a5.38,5.38,0,0,1-4.19-9.9c19.73-8.34,44.63-8.34,64.36,0A5.38,5.38,0,0,1,285.2,202Z"/><path class="cls-7" d="M311,190.21a5.32,5.32,0,0,1-2.88-.84,88.93,88.93,0,0,0-8.1-4.58,5.37,5.37,0,1,1,4.79-9.62,99.48,99.48,0,0,1,9.09,5.14,5.37,5.37,0,0,1-2.9,9.9Z"/><path class="cls-7" d="M285.69,179.91a6.29,6.29,0,0,1-1.81-.26,104.89,104.89,0,0,0-57.52,0,6.45,6.45,0,1,1-3.61-12.38,117.92,117.92,0,0,1,64.74,0,6.45,6.45,0,0,1-1.8,12.64Z"/><path class="cls-8" d="M201.4,280.9h0a15.07,15.07,0,0,1-15-15v-8.59a15.07,15.07,0,0,1,15-15h0a15.08,15.08,0,0,1,15,15v8.59A15.08,15.08,0,0,1,201.4,280.9Z"/><path class="cls-7" d="M201.4,242.23a15.2,15.2,0,0,0-2.15.21v21.27a8.6,8.6,0,1,0,17.19,0v-6.44A15.08,15.08,0,0,0,201.4,242.23Z"/><circle class="cls-9" cx="201.39" cy="252.97" r="6.45"/><path class="cls-8" d="M308.84,280.9h0a15.08,15.08,0,0,1-15-15v-8.59a15.08,15.08,0,0,1,15-15h0a15.08,15.08,0,0,1,15,15v8.59A15.08,15.08,0,0,1,308.84,280.9Z"/><path class="cls-7" d="M308.84,242.23a15.2,15.2,0,0,0-2.15.21v21.27a8.6,8.6,0,1,0,17.19,0v-6.44A15.08,15.08,0,0,0,308.84,242.23Z"/><circle class="cls-9" cx="308.84" cy="252.97" r="6.45"/><path class="cls-6" d="M283.05,311c-11.95,0-22.37,5.22-27.93,13-5.57-7.74-16-13-27.94-13-17.8,0-32.23,11.54-32.23,25.78s14.43,25.79,32.23,25.79c12,0,22.37-5.22,27.94-13,5.56,7.74,16,13,27.93,13,17.8,0,32.24-11.54,32.24-25.79S300.86,311,283.05,311Z"/><path class="cls-10" d="M227.47,320.44l10.89,9.07a26.16,26.16,0,0,0,33.52,0l10.89-9.07a6.71,6.71,0,0,0-4.27-11.87H231.74A6.71,6.71,0,0,0,227.47,320.44Z"/><path class="cls-11" d="M255.55,332.91l-10.89-13.22c-2.47-3-2.93-7.48-1.94-11.12h-11a6.71,6.71,0,0,0-4.27,11.87l10.89,9.07a26,26,0,0,0,19.46,5.84A28.07,28.07,0,0,1,255.55,332.91Z"/><path class="cls-12" d="M281.19,366.86a37.78,37.78,0,0,1-23.86-8.4,3.52,3.52,0,0,0-4.42,0,37.78,37.78,0,0,1-23.86,8.4,38.59,38.59,0,0,1-38.4-38.68,4.3,4.3,0,0,1,8.6,0,30,30,0,0,0,29.8,30.08,29.32,29.32,0,0,0,18.49-6.5,12,12,0,0,1,15.16,0,29.3,29.3,0,0,0,18.49,6.5A30,30,0,0,0,311,328.18a4.3,4.3,0,1,1,8.59,0A38.58,38.58,0,0,1,281.19,366.86Z"/></svg>