<svg id="Capa_1" data-name="Capa 1" xmlns="http://www.w3.org/2000/svg" viewBox="0 0 512 512"><defs><style>.cls-1{fill:#895830;stroke:#391e00;stroke-miterlimit:10;stroke-width:20px;}.cls-2{fill:#d36437;}.cls-3{fill:#b44731;}.cls-4{fill:#ebcaa1;}.cls-5{fill:#eb874a;}.cls-6{fill:#4b3f4f;}.cls-7{fill:#5e5361;}.cls-8{fill:#fff;}</style></defs><title>fox</title><circle class="cls-1" cx="255.12" cy="255.12" r="212.6"/><path class="cls-2" d="M352,122.48a8.72,8.72,0,0,1,11.88,8.44c-2.2,50.46-19.57,94-19.57,94l-65.6-46C304.83,147.34,336.49,128.4,352,122.48Z"/><path class="cls-3" d="M300.55,194.19c17.05-27.77,42.76-54.28,50.9-59,3.3-1.91,6.2,2.78,5.46,9a574.86,574.86,0,0,1-15.45,78.75Z"/><path class="cls-2" d="M158.26,122.48a8.71,8.71,0,0,0-11.87,8.44c2.19,50.46,19.56,94,19.56,94l65.61-46C205.4,147.34,173.75,128.4,158.26,122.48Z"/><path class="cls-3" d="M209.69,194.19c-17.05-27.77-42.76-54.28-50.9-59-3.3-1.91-6.2,2.78-5.46,9a574.86,574.86,0,0,0,15.45,78.75Z"/><ellipse class="cls-4" cx="255.12" cy="370.95" rx="26.1" ry="17.4"/><path class="cls-4" d="M224.67,366.6c-30.44-17.4-80.89-36.34-80.89-36.34l4.85-14.52c-2-1-16-1.15-28.35,3L133.33,297h91.34Z"/><path class="cls-4" d="M285.56,366.6c30.45-17.4,80.89-36.34,80.89-36.34l-4.84-14.52c2-1,16-1.15,28.34,3L376.9,297H285.56Z"/><path class="cls-5" d="M255.12,170.87c63.4,0,117.83,63.53,134.64,146.9.06.33.13.66.19,1,0,0-32.07-33.16-66.87-15.49-12.9,6.55-19,20.95-19,36.68,0,26.08-20.91,40.52-45.68,30.49a8.6,8.6,0,0,0-6.5,0c-24.77,10-45.68-4.4-45.68-30.49,0-15.73-6.13-30.13-19-36.68-34.8-17.67-66.88,15.49-66.88,15.49.07-.32.13-.65.2-1C137.29,234.4,191.72,170.87,255.12,170.87Z"/><path class="cls-6" d="M209.45,292.66h0a15.28,15.28,0,0,1-15.23-15.23v-8.7a15.27,15.27,0,0,1,15.23-15.22h0a15.27,15.27,0,0,1,15.22,15.22v8.7A15.27,15.27,0,0,1,209.45,292.66Z"/><path class="cls-7" d="M209.45,253.51a15.63,15.63,0,0,0-2.18.22v21.53a8.7,8.7,0,0,0,17.4,0v-6.53A15.27,15.27,0,0,0,209.45,253.51Z"/><circle class="cls-8" cx="209.45" cy="264.39" r="6.52"/><path class="cls-6" d="M300.79,292.66h0a15.27,15.27,0,0,1-15.22-15.23v-8.7a15.27,15.27,0,0,1,15.22-15.22h0A15.27,15.27,0,0,1,316,268.73v8.7A15.27,15.27,0,0,1,300.79,292.66Z"/><path class="cls-7" d="M300.79,253.51a15.63,15.63,0,0,0-2.18.22v21.53a8.7,8.7,0,1,0,17.4,0v-6.53A15.27,15.27,0,0,0,300.79,253.51Z"/><circle class="cls-8" cx="300.79" cy="264.39" r="6.52"/><path class="cls-2" d="M250.77,370.83c.38-.14.75-.28,1.13-.44a8.74,8.74,0,0,1,6.44,0c.37.16.75.3,1.13.44V353.55h-8.7v17.28Z"/><path class="cls-7" d="M254.87,327.45c9.74,0,17.65,6.46,17.65,14.43,0,7.68-7.42,11.73-12.77,14.72a9.83,9.83,0,0,1-9.76,0c-5.35-3-12.77-7-12.77-14.72C237.22,333.91,245.12,327.45,254.87,327.45Z"/><path class="cls-6" d="M259.19,356.23c-5.35-3.85-12.77-9.05-12.77-18.93a19,19,0,0,1,2.25-8.88c-6.68,2.05-11.45,7.28-11.45,13.46,0,7.68,7.41,11.73,12.77,14.72a9.83,9.83,0,0,0,9.76,0l.07,0C259.61,356.43,259.39,356.37,259.19,356.23Z"/><path class="cls-2" d="M255.12,170.87l-8.46.42c-59.74,5.36-110.13,66.84-126.18,146.48-.07.33-.13.66-.2,1,0,0,25.89-26.74,56.38-19.37C180.47,191.05,248,170.87,255.12,170.87Z"/></svg>