<svg id="Capa_1" data-name="Capa 1" xmlns="http://www.w3.org/2000/svg" viewBox="0 0 512 512"><defs><style>.cls-1{fill:#ec8c2b;stroke:#512a00;stroke-miterlimit:10;stroke-width:20px;}.cls-2{fill:#f8f5f9;}.cls-3{fill:#e2dfe2;}.cls-4{fill:#995f33;}.cls-5{fill:#c17d50;}.cls-6{fill:#282628;}.cls-7{fill:#a69ea5;}</style></defs><title>goat</title><circle class="cls-1" cx="255.12" cy="255.12" r="212.6"/><path class="cls-2" d="M230.18,184.43l-19.22,12-12.88,8.07c0-36.08-23-59.58-40.11-72.07A5.84,5.84,0,0,1,162.33,122c51.41,7.93,67.85,62.46,67.85,62.46Z"/><path class="cls-3" d="M211,196.48l-12.88,8.07c0-36.08-23-59.58-40.11-72.07a5.87,5.87,0,0,1,1.87-10.39C177.25,129.4,203,148.26,211,196.48Z"/><path class="cls-2" d="M348.41,132.48c-17.11,12.49-40.11,36-40.11,72.07l-16.36-10.26-15.74-9.86S292.64,129.9,344.05,122a5.68,5.68,0,0,1,5.47,2.08A5.8,5.8,0,0,1,348.41,132.48Z"/><path class="cls-3" d="M349.52,124.05c-15.42,5.75-47.74,23.17-57.58,70.24l-15.74-9.86S292.64,129.9,344.05,122A5.68,5.68,0,0,1,349.52,124.05Z"/><path class="cls-4" d="M340.2,258H170a46.39,46.39,0,0,1-46.38-46.38H386.59A46.39,46.39,0,0,1,340.2,258Z"/><path class="cls-5" d="M328.69,343.52,288,376.11a55.7,55.7,0,0,1-69.68,0l-40.66-32.59a55.71,55.71,0,0,1-18.59-59.21l17.64-59.91a55.7,55.7,0,0,1,51.45-39.93c.66,0,1.33,0,2,0h46c.67,0,1.33,0,2,0a55.69,55.69,0,0,1,51.45,39.93l17.64,59.91a55.71,55.71,0,0,1-18.59,59.21Z"/><path class="cls-4" d="M253.19,388.35a55.61,55.61,0,0,1-34.84-12.24L177.7,343.52a55.7,55.7,0,0,1-18.6-59.21l17.64-59.91a55.7,55.7,0,0,1,51.45-39.93c.66,0,1.33,0,2,0h12.39c-.3,0-.61,0-.92,0-11,.84-20.6,16.87-23.73,39.93l-8.15,59.91c-3,21.68.45,45.07,8.59,59.21l18.75,32.59c4.7,8.16,10.39,12.24,16.08,12.24Z"/><path class="cls-6" d="M189.89,250.5c-6.73,0-12.2,8.17-12.2,18.23S183.16,287,189.89,287s12.2-8.18,12.2-18.23S196.61,250.5,189.89,250.5Z"/><path class="cls-6" d="M316.2,250.5c-6.73,0-12.2,8.17-12.2,18.23S309.47,287,316.2,287s12.2-8.18,12.2-18.23S322.93,250.5,316.2,250.5Z"/><path class="cls-7" d="M270.25,317.15V249.31H236.14v67.84a22.53,22.53,0,0,1-6.91,16.06,21.26,21.26,0,0,0,14.88,36.43h18.16a21.26,21.26,0,0,0,14.88-36.43,22.52,22.52,0,0,1-6.9-16.06Z"/><path class="cls-2" d="M297.66,319.69a31.17,31.17,0,0,1-31.16,31.16H239.88a31.16,31.16,0,0,1-21.81-53.4,33.05,33.05,0,0,0,10.12-23.56V184.47c.66,0,1.33,0,2,0h46c.67,0,1.33,0,2,0v89.42a33.05,33.05,0,0,0,10.12,23.56,31,31,0,0,1,9.35,22.24Z"/><path class="cls-3" d="M247.3,350.85h-7.42a31.15,31.15,0,0,1-21.81-53.4,33.06,33.06,0,0,0,10.12-23.55V184.47c.66,0,1.33,0,2,0H243a8.64,8.64,0,0,0-.88,0V273.9c0,8.9-1.66,17.31-4.47,23.55-2.56,5.65-4.14,13.53-4.14,22.24s1.54,16.39,4,22S243.5,350.85,247.3,350.85Z"/><path class="cls-7" d="M278,313.93a24.79,24.79,0,0,1-20.74,24.42v12.5h-8v-12.5a24.8,24.8,0,0,1-20.74-24.42,4,4,0,0,1,8,0,16.73,16.73,0,0,0,16.69,16.71h0a16.73,16.73,0,0,0,16.69-16.71,4,4,0,0,1,8.05,0Z"/></svg>