<svg id="Capa_1" data-name="Capa 1" xmlns="http://www.w3.org/2000/svg" viewBox="0 0 512 512"><defs><style>.cls-1{fill:#ce4e97;stroke:#490030;stroke-miterlimit:10;stroke-width:20px;}.cls-2{fill:#995f33;}.cls-3{fill:#e5946c;}.cls-4{fill:#dd6a38;}.cls-5{fill:#c17d50;}.cls-6{fill:#f8f5f9;}.cls-7{fill:#dfdde2;}.cls-8{fill:#39474a;}.cls-9{fill:#282628;}</style></defs><title>hog</title><circle class="cls-1" cx="255.12" cy="255.12" r="212.6"/><path class="cls-2" d="M206.86,169s-16.63-34.29-60.25-47.12c0,0-49.61,75.27,12.48,112.48"/><path class="cls-3" d="M159.09,234.37,180.59,205l-.57-2.34c0-31.73-33.41-80.73-33.41-80.73S97,197.16,159.09,234.37Z"/><path class="cls-4" d="M162.5,189.06a4,4,0,0,1-3.07-1.43l-13.08-15.48A4,4,0,0,1,152.5,167l13.07,15.48a4,4,0,0,1-3.07,6.62Z"/><path class="cls-4" d="M154.22,201.72h-10.7a4,4,0,1,1,0-8h10.7a4,4,0,1,1,0,8Z"/><path class="cls-2" d="M303.38,169s16.63-34.29,60.24-47.12c0,0,49.61,75.27-12.48,112.48"/><path class="cls-3" d="M351.14,234.37,329.65,205l.57-2.34c0-31.73,33.41-80.73,33.41-80.73s49.6,75.27-12.49,112.48Z"/><path class="cls-5" d="M360.42,247.13a79.37,79.37,0,0,1-9.28-23.35c-8.69-37.17-48.38-65.25-96-65.25s-87.33,28.08-96,65.25a79.62,79.62,0,0,1-9.27,23.35,83.07,83.07,0,0,0-12.44,43.46c0,53.58,52.71,97,117.74,97s117.74-43.44,117.74-97A83.07,83.07,0,0,0,360.42,247.13Z"/><path class="cls-2" d="M254.29,387.61c-64.65-.37-116.91-43.67-116.91-97a83.13,83.13,0,0,1,12.44-43.46,79.73,79.73,0,0,0,9.27-23.35c8.69-37.18,48.38-65.25,96-65.25-26,0-47.6,28.07-52.34,65.25a124.5,124.5,0,0,1-5.05,23.35A138.51,138.51,0,0,0,191,290.59c0,53.16,28.28,96.34,63.34,97Z"/><path class="cls-6" d="M204,330c-19.42,27.29-54.85,25.71-72.12,10.25a56.56,56.56,0,1,0,93.66-50.61C229,312.54,218.24,310,204,330Z"/><path class="cls-6" d="M306.21,330c19.43,27.29,54.85,25.71,72.13,10.25a56.57,56.57,0,1,1-93.66-50.61C281.21,312.54,292,310,306.21,330Z"/><path class="cls-7" d="M214.72,381.54a56.58,56.58,0,0,1-82.82-41.31,42.82,42.82,0,0,0,15.22,8.57,56.57,56.57,0,0,0,97.27-18.44,56.59,56.59,0,0,1-29.67,51.18Z"/><path class="cls-7" d="M295.51,381.54a56.59,56.59,0,0,0,82.83-41.31,43,43,0,0,1-15.23,8.57,56.57,56.57,0,0,1-97.26-18.44,56.57,56.57,0,0,0,29.66,51.18Z"/><ellipse class="cls-3" cx="255.12" cy="308.86" rx="58.74" ry="48.41"/><circle class="cls-8" cx="222.37" cy="308.11" r="11.77"/><circle class="cls-8" cx="287.86" cy="308.11" r="11.77"/><path class="cls-9" d="M191.07,229.53c-6.76,0-12.27,8.22-12.27,18.33s5.51,18.33,12.27,18.33,12.27-8.22,12.27-18.33S197.83,229.53,191.07,229.53Z"/><path class="cls-9" d="M318.09,229.53c-6.77,0-12.27,8.22-12.27,18.33s5.5,18.33,12.27,18.33,12.26-8.22,12.26-18.33S324.85,229.53,318.09,229.53Z"/><path class="cls-4" d="M347.73,189.06a4,4,0,0,1-3.07-6.62L357.74,167a4,4,0,0,1,6.14,5.19l-13.07,15.48A4,4,0,0,1,347.73,189.06Z"/><path class="cls-4" d="M366.71,201.72H356a4,4,0,1,1,0-8h10.69a4,4,0,1,1,0,8Z"/></svg>