<svg id="Capa_1" data-name="Capa 1" xmlns="http://www.w3.org/2000/svg" viewBox="0 0 512 512"><defs><style>.cls-1{fill:#4e4e48;stroke:#1f201b;stroke-miterlimit:10;stroke-width:20px;}.cls-2{fill:#ffe09e;}.cls-3{fill:#f5d190;}.cls-4{fill:#e5646e;}.cls-5{fill:#f37f87;}.cls-6{fill:#e8b67d;}.cls-7{fill:#5f5461;}.cls-8{fill:#fff6d7;}.cls-9{fill:#fff;}.cls-10{fill:#b57f60;}</style></defs><title>llama</title><circle class="cls-1" cx="255.12" cy="255.12" r="212.6"/><path class="cls-2" d="M345,153.31l-11.81-26.57a13,13,0,0,0-14.08-7.49L314.24,132v77.77l15.58,16L346,181.24A37.29,37.29,0,0,0,345,153.31Z"/><path class="cls-3" d="M319.15,119.26A12.93,12.93,0,0,0,308.48,132v77.77l10.67,8Z"/><path class="cls-4" d="M349.49,156.25l-5.35-5a6.84,6.84,0,0,0-4.94,5l-7.72,30.88a5.33,5.33,0,0,0,5.17,6.63h4.81l15.75-6.63Z"/><path class="cls-5" d="M346,181.24a37.29,37.29,0,0,0-1-27.93l-.9-2a7.24,7.24,0,0,1,1.69-.21,6.83,6.83,0,0,1,6.63,5.18l7.72,30.88a5.34,5.34,0,0,1-5.18,6.63H341.46Z"/><path class="cls-2" d="M192.38,119.55a13,13,0,0,0-3.56-.49l-7.11,7.68L169.9,153.31a37.29,37.29,0,0,0-1,27.93l16.19,44.53,16.64-16V132a12.94,12.94,0,0,0-9.38-12.44Z"/><path class="cls-3" d="M174.25,177.59a26.51,26.51,0,0,1,.65-19.85l17.48-38.19A13,13,0,0,0,177,126.74l-11.81,26.57a37.39,37.39,0,0,0-1,27.93l16.2,44.53,8.92-6.69Z"/><path class="cls-2" d="M276.46,380.51H244.83a53.36,53.36,0,0,1-53.36-53.36v-80H329.82v80a53.36,53.36,0,0,1-53.36,53.36Z"/><path class="cls-3" d="M233.78,380.51h21.34V369.84H233.78a21.35,21.35,0,0,1-21.35-21.35v-74.7h-32v53.36a53.36,53.36,0,0,0,53.36,53.36Z"/><path class="cls-3" d="M287.13,199.09h-64a58.51,58.51,0,0,0-26.68,6.4L185,246.67l128.8,11.12v16h16a16,16,0,0,0,16-16A58.7,58.7,0,0,0,287.13,199.09Z"/><path class="cls-6" d="M303.14,247.11H212.43a16,16,0,0,1-16-16V205.49a58.74,58.74,0,0,0-32,52.56,16,16,0,0,0,16,15.74h16v-16H313.81a10.68,10.68,0,0,0-10.67-10.68Z"/><circle class="cls-7" cx="313.81" cy="273.79" r="16.01"/><circle class="cls-7" cx="196.42" cy="273.79" r="16.01"/><path class="cls-5" d="M178.76,187.13,171,156.25a6.82,6.82,0,0,0-4.95-5l-5.34,5L153,187.13l15.74,6.63h4.81A5.34,5.34,0,0,0,178.76,187.13Z"/><path class="cls-8" d="M255.12,383.11c-14.74,0-26.68-7.11-26.68-26.61v-40a26.68,26.68,0,0,1,53.36,0v40C281.8,380,269.85,383.11,255.12,383.11Z"/><circle class="cls-9" cx="201.76" cy="268.46" r="5.34"/><circle class="cls-9" cx="319.15" cy="268.46" r="5.34"/><path class="cls-3" d="M268.46,369.84h-.1c-4.46,0-7.91-4-7.91-8.47V327.15H249.78v34.22c0,4.46-3.44,8.43-7.9,8.47h-.1a13.34,13.34,0,0,1-13.34-13.34v6.86c0,13.93,10.19,26.37,24.06,27.7a26.69,26.69,0,0,0,29.3-26.56v-8a13.34,13.34,0,0,1-13.34,13.34Z"/><path class="cls-10" d="M255.12,332.49a5.28,5.28,0,0,1-3.77-1.57l-10.68-10.67a5.34,5.34,0,0,1,7.55-7.54l6.9,6.9,6.9-6.9a5.33,5.33,0,0,1,7.54,7.54l-10.67,10.67a5.29,5.29,0,0,1-3.77,1.57Z"/><path class="cls-4" d="M164.22,181.24a37.39,37.39,0,0,1,1-27.93l.9-2a6.67,6.67,0,0,0-1.68-.21,6.82,6.82,0,0,0-6.63,5.18l-7.72,30.88a5.34,5.34,0,0,0,5.18,6.63h13.54Z"/></svg>