<svg id="Capa_1" data-name="Capa 1" xmlns="http://www.w3.org/2000/svg" viewBox="0 0 512 512"><defs><style>.cls-1{fill:#f4f0e4;stroke:#545451;stroke-miterlimit:10;stroke-width:20px;}.cls-2{fill:#c17d50;}.cls-3{fill:#995f33;}.cls-4{fill:#f6e737;}.cls-5{fill:#ebc32c;}.cls-6{fill:#f1d0a6;}.cls-7{fill:#282628;}.cls-8{fill:#675e67;}.cls-9{fill:#464146;}</style></defs><title>owl</title><circle class="cls-1" cx="255.12" cy="255.12" r="212.6"/><path class="cls-2" d="M313.44,170.23q-58.32-2.4-116.64,0a75.23,75.23,0,0,0-72,71.94q-.74,17.09-.68,34.16c.22,55.11,44.23,100.19,99.33,101.42q31.68.71,63.35,0a101.76,101.76,0,0,0,99.33-101.42q.08-17.08-.68-34.16a75.21,75.21,0,0,0-72-71.94Z"/><path class="cls-3" d="M250.91,378.1q-13.72,0-27.47-.35c-55.1-1.23-99.11-46.3-99.33-101.42q-.06-17.07.69-34.16a75.21,75.21,0,0,1,72-71.94q16.68-.69,33.37-1a79.26,79.26,0,0,0-52.63,71.25q-.78,18-.71,36A107.27,107.27,0,0,0,250.91,378.1Z"/><path class="cls-4" d="M295.63,216.17v73.47s-7.48,38.15-40.51,45.21c-.52-.1-1-.22-1.53-.35-31.74-7.89-39-44.86-39-44.86l-7.8-67.53,46.78,3.4,1.53.11Z"/><path class="cls-5" d="M253.59,225.51v109c-31.74-7.89-39-44.86-39-44.86l-7.8-67.53Z"/><circle class="cls-6" cx="194.64" cy="252.9" r="41.8"/><circle class="cls-6" cx="315.6" cy="252.9" r="41.8"/><path class="cls-3" d="M194.64,298.77A45.87,45.87,0,1,1,240.5,252.9a45.93,45.93,0,0,1-45.86,45.87Zm0-83.6a37.74,37.74,0,1,0,37.74,37.73A37.77,37.77,0,0,0,194.64,215.17Z"/><path class="cls-3" d="M315.6,298.77a45.87,45.87,0,1,1,45.86-45.87A45.93,45.93,0,0,1,315.6,298.77Zm0-83.6a37.74,37.74,0,1,0,37.74,37.73A37.77,37.77,0,0,0,315.6,215.17Z"/><path class="cls-7" d="M194.64,234.3c-6.79,0-12.31,8.35-12.31,18.6s5.52,18.6,12.31,18.6S207,263.16,207,252.9s-5.52-18.6-12.31-18.6Z"/><path class="cls-7" d="M315.6,234.3c-6.79,0-12.31,8.35-12.31,18.6s5.52,18.6,12.31,18.6,12.31-8.34,12.31-18.6-5.52-18.6-12.31-18.6Z"/><path class="cls-8" d="M389.76,132.13v24a59.75,59.75,0,0,1-40.24,56.48l-94.4,32.61-94.41-32.61a59.76,59.76,0,0,1-40.24-56.48v-24l67,46.52,67.64,47Z"/><path class="cls-9" d="M187.48,178.65s-32.93-2.79-26.77,34a59.76,59.76,0,0,1-40.24-56.48v-24Z"/></svg>