<svg id="Capa_1" data-name="Capa 1" xmlns="http://www.w3.org/2000/svg" viewBox="0 0 512 512"><defs><style>.cls-1{fill:#d13e57;stroke:#4a000d;stroke-miterlimit:10;stroke-width:20px;}.cls-2{fill:#675e67;}.cls-3{fill:#464146;}.cls-4{fill:#f8f5f9;}.cls-5{fill:#c6c1c8;}.cls-6{fill:#dfdde2;}.cls-7{fill:#282628;}</style></defs><title>panda</title><circle class="cls-1" cx="255.12" cy="255.12" r="212.6"/><ellipse class="cls-2" cx="173.32" cy="170.67" rx="40.96" ry="55.5" transform="translate(-69.92 172.55) rotate(-45)"/><path class="cls-3" d="M129.35,137.54c16.84-10,42.93-4.15,62.1,15s25,45.26,15,62.1a30.24,30.24,0,0,0,6.12-4.74c16-16,11.39-46.53-10.29-68.21s-52.22-26.28-68.21-10.29A30.89,30.89,0,0,0,129.35,137.54Z"/><ellipse class="cls-3" cx="169.62" cy="179.71" rx="21.93" ry="29.71" transform="translate(-77.39 172.57) rotate(-45)"/><path class="cls-2" d="M177.14,179.08a4,4,0,0,1-2.21-.67l-10.24-6.78a4,4,0,0,1,4.45-6.71l10.23,6.79a4,4,0,0,1-2.23,7.37Z"/><path class="cls-2" d="M169.33,188.39a3.71,3.71,0,0,1-.47,0l-7.18-.84a4,4,0,0,1,.94-8l7.17.83a4,4,0,0,1-.46,8Z"/><ellipse class="cls-2" cx="336.91" cy="170.69" rx="55.5" ry="40.96" transform="translate(-22.02 288.23) rotate(-45)"/><path class="cls-3" d="M380.93,137.54c-16.85-10-42.94-4.15-62.11,15s-25,45.26-15,62.1a30.18,30.18,0,0,1-6.11-4.74c-16-16-11.39-46.53,10.29-68.21s52.22-26.28,68.21-10.29a31.27,31.27,0,0,1,4.74,6.12Z"/><ellipse class="cls-3" cx="340.62" cy="179.73" rx="29.71" ry="21.93" transform="translate(-27.32 293.5) rotate(-45)"/><path class="cls-4" d="M360.78,247.41A79.8,79.8,0,0,1,351.47,224c-8.72-37.29-48.53-65.46-96.33-65.46S167.53,186.69,158.8,224a79.77,79.77,0,0,1-9.3,23.43A83.32,83.32,0,0,0,137,291c0,53.76,52.88,97.34,118.12,97.34S373.26,344.77,373.26,291a83.41,83.41,0,0,0-12.48-43.6Z"/><ellipse class="cls-2" cx="255.14" cy="274.78" rx="27.75" ry="18.52"/><path class="cls-5" d="M239.38,336.19a19.77,19.77,0,0,1-19.77-19.78v-5a4,4,0,1,1,8,0v5a11.74,11.74,0,1,0,23.47,0V293.3a4,4,0,1,1,8,0v23.11a19.8,19.8,0,0,1-19.78,19.78Z"/><path class="cls-5" d="M270.89,336.19a19.8,19.8,0,0,1-19.77-19.78V293.3a4,4,0,1,1,8,0v23.11a11.75,11.75,0,0,0,11.73,11.74,11.74,11.74,0,0,0,11.73-11.74v-5a4,4,0,1,1,8,0v5a19.77,19.77,0,0,1-19.77,19.78Z"/><path class="cls-3" d="M264.49,292.22a40.14,40.14,0,0,1-9.35,1.08c-15.33,0-27.75-8.29-27.75-18.52s12.42-18.52,27.75-18.52a40.14,40.14,0,0,1,9.35,1.08c-10.72,2.56-18.4,9.4-18.4,17.44S253.77,289.66,264.49,292.22Z"/><path class="cls-6" d="M254.31,388.34C189.45,388,137,344.54,137,291a83.35,83.35,0,0,1,12.48-43.6A79.61,79.61,0,0,0,158.8,224c8.72-37.29,48.54-65.46,96.34-65.46-26,0-47.75,28.17-52.51,65.46a124.39,124.39,0,0,1-5.07,23.43,139.35,139.35,0,0,0-6.8,43.6c0,53.33,28.38,96.65,63.55,97.33Z"/><path class="cls-2" d="M217,279.65c-7.17,7.16-16.74,14.6-26,19-12.72,6-24.9,6.23-29.66-7.82-5.58-16.48-5.82-38.74,11.15-55.7,9.25-9.25,20.51-14.59,30.83-15.53,8.61-.78,16.56,1.49,22.16,7.08C237.74,239,234,262.68,217,279.65Z"/><path class="cls-2" d="M293.28,279.64c-17-17-20.75-40.69-8.45-53s36-8.52,53,8.44,16.73,39.23,11.15,55.7C340.74,315.12,310.24,296.61,293.28,279.64Z"/><path class="cls-3" d="M203.28,219.57c-.24,1.46-.46,2.93-.65,4.41a124.22,124.22,0,0,1-5.07,23.43,139.11,139.11,0,0,0-6.8,43.6q0,3.84.2,7.61c-12.72,6-24.91,6.23-29.67-7.82-5.57-16.48-5.81-38.74,11.16-55.7,9.25-9.25,20.51-14.59,30.83-15.53Z"/><path class="cls-7" d="M201.72,235.17c-6.79,0-12.31,8.25-12.31,18.39S194.93,272,201.72,272,214,263.7,214,253.56s-5.52-18.39-12.3-18.39Z"/><path class="cls-7" d="M307.48,235.17c-6.79,0-12.31,8.25-12.31,18.39S300.69,272,307.48,272s12.31-8.25,12.31-18.39-5.53-18.39-12.31-18.39Z"/><path class="cls-2" d="M333.13,179.08a4,4,0,0,1-2.22-7.37l10.23-6.79a4,4,0,0,1,4.44,6.71l-10.23,6.78A4.06,4.06,0,0,1,333.13,179.08Z"/><path class="cls-2" d="M341,188.39a4,4,0,0,1-.46-8l7.17-.83a4,4,0,1,1,.93,8l-7.17.84Z"/></svg>