<svg id="Capa_1" data-name="Capa 1" xmlns="http://www.w3.org/2000/svg" viewBox="0 0 512 512"><defs><style>.cls-1{fill:#3c90ce;stroke:#002646;stroke-miterlimit:10;stroke-width:20px;}.cls-2{fill:#675e67;}.cls-3{fill:#464146;}.cls-4{fill:#f8f5f9;}.cls-5{fill:#dfdde2;}.cls-6{fill:#e5946c;}.cls-7{fill:#dd6a38;}.cls-8{fill:#282628;}</style></defs><title>seal</title><circle class="cls-1" cx="255.12" cy="255.12" r="212.6"/><path class="cls-2" d="M149.53,225a102.08,102.08,0,0,0,9.3-27.17c8.72-43.23,48.51-75.89,96.29-75.89s87.57,32.66,96.29,75.89a101.73,101.73,0,0,0,9.3,27.17,108.35,108.35,0,0,1,12.47,50.54c0,62.33-52.86,112.86-118.06,112.86S137.05,337.82,137.05,275.49A108.35,108.35,0,0,1,149.53,225Z"/><path class="cls-3" d="M255.11,388.35c-65.2,0-118.06-50.54-118.06-112.86A108.35,108.35,0,0,1,149.53,225a101.71,101.71,0,0,0,9.29-27.17c8.69-43.05,48.18-75.61,95.68-75.88-25.76.5-47.15,33-51.86,75.88A166.41,166.41,0,0,1,197.57,225a184.82,184.82,0,0,0-6.8,50.54c0,62.32,28.81,112.85,64.34,112.86Z"/><path class="cls-4" d="M222.58,317.48c-.89,21.43,10.7,40.08,6.09,46.45-2.33,2.82-10.53,1.64-18.83-6.41-8.17-7.77-16.44-22.41-16.16-40-.28-17.63,8-32.27,16.16-40,8.3-8.05,16.5-9.23,18.83-6.42,4.61,6.38-7,25-6.09,46.46Z"/><path class="cls-4" d="M287.66,317.48c.89,21.43-10.7,40.08-6.09,46.45,2.33,2.82,10.53,1.64,18.82-6.41,8.18-7.77,16.45-22.41,16.16-40,.29-17.63-8-32.27-16.16-40-8.29-8.05-16.49-9.23-18.82-6.42-4.61,6.38,7,25,6.09,46.46Z"/><path class="cls-5" d="M221.82,357.52a33.63,33.63,0,0,0,7.35,5.51,4.15,4.15,0,0,1-.5.9c-2.33,2.81-10.53,1.64-18.83-6.41-8.17-7.78-16.44-22.41-16.16-40-.28-17.64,8-32.28,16.16-40.05,8.3-8.05,16.5-9.23,18.83-6.41a4.4,4.4,0,0,1,.5.9,33.63,33.63,0,0,0-7.35,5.51c-8.18,7.77-16.45,22.41-16.17,40.05-.28,17.63,8,32.26,16.17,40Z"/><path class="cls-5" d="M293,363c-5.37,2.88-9.84,2.86-11.46.9-4.61-6.37,7-25,6.09-46.45.89-21.43-10.7-40.08-6.09-46.46,1.62-2,6.09-2,11.46.9-3.11,7.11,7.45,25.07,6.6,45.56C300.48,338,289.92,355.92,293,363Z"/><circle class="cls-3" cx="255.12" cy="301.49" r="23.33"/><path class="cls-6" d="M280.55,235a53.65,53.65,0,0,1,7.23-.48c25.43,0,46.06,17.59,46.06,39.3s-20.63,39.3-46.06,39.3a50.12,50.12,0,0,1-32.66-11.59,50.14,50.14,0,0,1-32.66,11.59c-25.44,0-46.06-17.59-46.06-39.3s20.62-39.3,46.06-39.3a53.61,53.61,0,0,1,7.22.48"/><path class="cls-7" d="M215.18,273.78c0,18.57,7.66,34.14,17.95,38.24a54,54,0,0,1-10.68,1.06c-25.43,0-46-17.59-46-39.3s20.62-39.3,46-39.3a53.65,53.65,0,0,1,7.23.48h5.21c-11.16,2.95-19.71,19.2-19.71,38.82Z"/><path class="cls-8" d="M190.89,194.64c-6.78,0-12.3,8.25-12.3,18.38s5.52,18.39,12.3,18.39,12.3-8.25,12.3-18.39-5.51-18.38-12.3-18.38Z"/><path class="cls-8" d="M318.26,194.64c-6.78,0-12.3,8.25-12.3,18.38s5.52,18.39,12.3,18.39,12.3-8.25,12.3-18.39S325,194.64,318.26,194.64Z"/><ellipse class="cls-3" cx="255.12" cy="242.36" rx="27.74" ry="18.51"/><path class="cls-4" d="M389.48,264.92a4,4,0,0,1-1.23-.19c-41.34-13.2-86-.11-86.43,0a4.05,4.05,0,0,1-2.34-7.76c1.92-.58,47.45-14,91.23,0a4.05,4.05,0,0,1-1.23,7.91Z"/><path class="cls-4" d="M362.73,282.22a4,4,0,0,1-1.62-.34c-21.17-9.26-47.41-4.18-47.67-4.12a4.06,4.06,0,1,1-1.59-8c1.17-.23,29-5.62,52.51,4.65a4.05,4.05,0,0,1-1.63,7.77Z"/><path class="cls-4" d="M386,327.84a4.06,4.06,0,0,1-3.39-1.83c-21-32-81.53-34.6-82.14-34.62a4.06,4.06,0,0,1,.3-8.11A181.18,181.18,0,0,1,336,288.85c25.61,6.7,43.59,17.7,53.45,32.71a4.06,4.06,0,0,1-3.39,6.28Z"/><path class="cls-4" d="M120.75,264.92a4.05,4.05,0,0,1-1.23-7.91c43.79-14,89.32-.6,91.23,0a4.05,4.05,0,1,1-2.33,7.76c-.45-.13-45.1-13.22-86.43,0a4.11,4.11,0,0,1-1.24.19Z"/><path class="cls-4" d="M147.51,282.22a4.05,4.05,0,0,1-1.63-7.77c23.47-10.27,51.33-4.88,52.51-4.65a4.06,4.06,0,0,1-1.59,8c-.36-.07-26.61-5.1-47.67,4.12a4.06,4.06,0,0,1-1.62.34Z"/><path class="cls-4" d="M124.2,327.84a4.06,4.06,0,0,1-3.38-6.28c9.86-15,27.84-26,53.45-32.71a181.13,181.13,0,0,1,35.16-5.57,4.06,4.06,0,0,1,.31,8.11c-.61,0-61.17,2.69-82.14,34.62a4.08,4.08,0,0,1-3.4,1.83Z"/></svg>