<svg id="Capa_1" data-name="Capa 1" xmlns="http://www.w3.org/2000/svg" viewBox="0 0 512 512"><defs><style>.cls-1{fill:#f2d43f;stroke:#514801;stroke-miterlimit:10;stroke-width:20px;}.cls-2{fill:#706672;}.cls-3{fill:#c0bcc1;}.cls-4{fill:#5f5461;}.cls-5{fill:#877f89;}.cls-6{fill:#4c404f;}.cls-7{fill:#fff;}.cls-8{fill:#b0a9b0;}</style></defs><title>wolf</title><circle class="cls-1" cx="255.12" cy="255.12" r="212.6"/><path class="cls-2" d="M360.67,122.48a8.72,8.72,0,0,1,11.88,8.44,344.12,344.12,0,0,1-17.39,92.15l-69.59-43.5C311.72,148.07,345.18,128.4,360.67,122.48Z"/><path class="cls-3" d="M357.92,137.79c3.58-2,7.22,2.29,6.87,8.2-2.8,47.66-17.52,80.34-17.52,80.34l-36.08-36C327.81,161.06,348.46,143.09,357.92,137.79Z"/><path class="cls-2" d="M149.56,122.48a8.71,8.71,0,0,0-11.87,8.44,343.66,343.66,0,0,0,17.39,92.15l69.59-43.5C198.51,148.07,165.05,128.4,149.56,122.48Z"/><path class="cls-3" d="M152.31,137.79c-3.57-2-7.22,2.29-6.87,8.2,2.81,47.66,17.52,80.34,17.52,80.34l36.08-36C182.43,161.06,161.78,143.09,152.31,137.79Z"/><ellipse class="cls-4" cx="255.12" cy="370.95" rx="26.1" ry="17.4"/><path class="cls-5" d="M390,301.36c-16.57-83.86-71.18-130.49-134.83-130.49S136.86,217.5,120.28,301.36c0,0,25.32,7.26,28.34,8.7l-4.15,17.32a3.16,3.16,0,0,0,2.12,3.75c10,3.15,44.38,14.4,67.43,27.05h82.2c23-12.65,57.44-23.9,67.42-27.05a3.15,3.15,0,0,0,2.12-3.75l-4.15-17.32C364.64,308.62,390,301.36,390,301.36Z"/><path class="cls-2" d="M255.12,288.31a35.26,35.26,0,0,0-32.58,21.79c-5.45,13.18-10.92,26.28-10.92,39.1,0,12.58,16.12,31.11,40.73,21a7.28,7.28,0,0,1,5.54,0c24.61,10.09,40.72-8.44,40.72-21,0-12.82-5.46-25.92-10.91-39.1a35.27,35.27,0,0,0-32.58-21.79Z"/><path class="cls-3" d="M144.47,327.38a3.17,3.17,0,0,0,2.12,3.75c10,3.15,44.38,14.39,67.43,27.05h0a20.31,20.31,0,0,1-2.4-9c0-25.54,21.75-52.19,21.75-78.29,0-18.49-13.32-38.6-39.15-34.8-21.45,3.16-48.93,18.49-73.94,65.25,0,0,25.32,7.26,28.34,8.7Z"/><path class="cls-3" d="M365.76,327.38a3.16,3.16,0,0,1-2.12,3.75c-10,3.15-44.37,14.39-67.42,27.05h0a20.29,20.29,0,0,0,2.39-9c0-25.54-21.74-52.19-21.74-78.29,0-18.49,13.32-38.6,39.14-34.8,21.45,3.16,48.93,18.49,73.94,65.25,0,0-25.31,7.26-28.34,8.69Z"/><path class="cls-6" d="M200.75,292.66h0a15.27,15.27,0,0,1-15.22-15.23v-8.7a15.27,15.27,0,0,1,15.22-15.22h0A15.27,15.27,0,0,1,216,268.73v8.7A15.27,15.27,0,0,1,200.75,292.66Z"/><path class="cls-4" d="M200.75,253.51a15.63,15.63,0,0,0-2.18.22v21.53a8.7,8.7,0,1,0,17.4,0v-6.53A15.27,15.27,0,0,0,200.75,253.51Z"/><circle class="cls-7" cx="200.75" cy="264.39" r="6.52"/><path class="cls-6" d="M309.49,292.66h0a15.27,15.27,0,0,1-15.23-15.23v-8.7a15.27,15.27,0,0,1,15.23-15.22h0a15.27,15.27,0,0,1,15.22,15.22v8.7A15.27,15.27,0,0,1,309.49,292.66Z"/><path class="cls-4" d="M309.49,253.51a15.63,15.63,0,0,0-2.18.22v21.53a8.7,8.7,0,0,0,17.4,0v-6.53A15.27,15.27,0,0,0,309.49,253.51Z"/><circle class="cls-7" cx="309.49" cy="264.39" r="6.52"/><path class="cls-6" d="M276.87,341.88c0-8-9.85-14.43-22-14.43s-22,6.46-22,14.43c0,5.4,7.69,9.64,14.57,12.73a5.62,5.62,0,0,1,3.33,5.14v11c.53-.19,1-.32,1.58-.55a7.28,7.28,0,0,1,5.54,0c.54.23,1.05.36,1.58.55V359.7a5.61,5.61,0,0,1,3.28-5.12C269.47,351.49,276.87,347.26,276.87,341.88Z"/><path class="cls-2" d="M255.12,170.87c-63.65,0-118.26,46.63-134.84,130.49,0,0,25.32,7.26,28.34,8.7l-4.15,17.32a3.16,3.16,0,0,0,2.12,3.75c4.75,1.5,15,4.83,27,9.27C153,211.56,239.09,170.87,255.12,170.87Z"/><path class="cls-8" d="M173.56,340.4c-6.85-42.95-1.9-76.12,8.42-101.23-19.12,6.73-41.23,23.92-61.7,62.19,0,0,25.32,7.26,28.34,8.7l-4.15,17.32a3.16,3.16,0,0,0,2.12,3.75C151.34,332.63,161.61,336,173.56,340.4Z"/></svg>