<svg id="Capa_1" data-name="Capa 1" xmlns="http://www.w3.org/2000/svg" viewBox="0 0 512 512"><defs><style>.cls-1{fill:#f3f5f9;}.cls-2{fill:#e1e6f0;}.cls-3{fill:#eabf53;}.cls-4{fill:#e5a923;}</style></defs><title>nz</title><path class="cls-1" d="M256,0C115.3,0,0,115.3,0,256S115.3,512,256,512,512,396.7,512,256,396.7,0,256,0Z"/><path class="cls-2" d="M512,256c0,140.7-115.3,256-256,256V0C396.7,0,512,115.3,512,256Z"/><circle class="cls-3" cx="256" cy="256" r="226"/><path class="cls-4" d="M482,256c0,124.2-101.8,226-226,226V30C380.2,30,482,131.8,482,256Z"/><circle class="cls-2" cx="256" cy="256" r="104.24"/><path class="cls-1" d="M256,151.76a104.24,104.24,0,0,0,0,208.48"/></svg>