<svg id="Capa_1" data-name="Capa 1" xmlns="http://www.w3.org/2000/svg" viewBox="0 0 512 512"><defs><style>.cls-1{fill:#e1e6f0;}.cls-2{fill:#6dafe0;}.cls-3{fill:#5ca4da;}.cls-4{fill:#f3f5f9;}</style></defs><title>unknown</title><path class="cls-1" d="M482,256q0-4.4-.17-8.74c-.07-1.91-.16-3.81-.29-5.71v-.06c-7.18-113.25-97.77-203.85-211-211h-.06c-1.9-.13-3.8-.22-5.71-.29Q260.39,30,256,30V0C396.7,0,512,115.3,512,256S396.7,512,256,512V482q4.39,0,8.74-.17c1.91-.07,3.81-.16,5.71-.29h.06c113.26-7.18,203.85-97.77,211-211v-.06c.13-1.9.22-3.8.29-5.71Q482,260.39,482,256Z"/><path class="cls-2" d="M481.54,241.55c.13,1.9.22,3.8.29,5.71Q481.73,244.4,481.54,241.55Z"/><path class="cls-2" d="M481.83,264.74c-.07,1.91-.16,3.81-.29,5.71Q481.72,267.6,481.83,264.74Z"/><path class="cls-2" d="M481.54,270.51c-7.18,113.26-97.77,203.85-211,211C383.23,474.29,474.29,383.23,481.54,270.51Z"/><path class="cls-2" d="M270.51,30.46c113.26,7.18,203.85,97.78,211,211C474.29,128.77,383.23,37.71,270.51,30.46Z"/><path class="cls-1" d="M351.4,199.38a69.27,69.27,0,0,1-3.1,21.67,60.47,60.47,0,0,1-9,17.3A77.38,77.38,0,0,1,325,252.86a190.71,190.71,0,0,1-18.82,12.93q-7.25,4.54-9.84,8.74a16.42,16.42,0,0,0-2.6,8.74h0a9.08,9.08,0,0,1-9.08,9.08H256v-69.8l3.12-2.21a40.47,40.47,0,0,0,8.56-7.52,12.26,12.26,0,0,0,3-7.86q0-7.33-4.37-10.31a17.87,17.87,0,0,0-10.29-3V126h1.37a152.19,152.19,0,0,1,32.77,3.67,94.33,94.33,0,0,1,30.28,12.23A69.39,69.39,0,0,1,342.7,164.6Q351.4,178.75,351.4,199.38Z"/><path class="cls-3" d="M270.66,205a12.26,12.26,0,0,1-3,7.86,40.47,40.47,0,0,1-8.56,7.52L256,222.56V191.69a17.87,17.87,0,0,1,10.29,3Q270.65,197.63,270.66,205Z"/><path class="cls-2" d="M264.74,30.17c1.91.07,3.81.16,5.71.29C268.55,30.34,266.65,30.24,264.74,30.17Z"/><path class="cls-2" d="M270.45,481.54c-1.9.13-3.8.22-5.71.29Q267.6,481.73,270.45,481.54Z"/><path class="cls-3" d="M256,30q4.39,0,8.74.17c1.91.07,3.81.17,5.71.29h.06c112.72,7.25,203.78,98.31,211,211v.06q.18,2.85.29,5.71.17,4.35.17,8.74t-.17,8.74q-.1,2.86-.29,5.71v.06c-7.25,112.72-98.31,203.78-211,211h-.06q-2.85.18-5.71.29-4.35.17-8.74.17V386h.32a43.25,43.25,0,0,0,17-3.32,46.19,46.19,0,0,0,13.81-8.92,39.67,39.67,0,0,0,9.26-13.28,41.88,41.88,0,0,0,3.32-16.78,41.1,41.1,0,0,0-3.32-16.43,41.73,41.73,0,0,0-9.26-13.45,44.62,44.62,0,0,0-13.81-9.09,43.25,43.25,0,0,0-17-3.32H256v-9.09h28.64a9.08,9.08,0,0,0,9.08-9.08h0a16.42,16.42,0,0,1,2.6-8.74q2.58-4.2,9.84-8.74A190.71,190.71,0,0,0,325,252.86a77.38,77.38,0,0,0,14.34-14.51,60.47,60.47,0,0,0,9-17.3,69.27,69.27,0,0,0,3.1-21.67q0-20.62-8.7-34.78a69.39,69.39,0,0,0-22.28-22.73,94.33,94.33,0,0,0-30.28-12.23A152.19,152.19,0,0,0,257.37,126H256Z"/><path class="cls-1" d="M273.28,382.72a43.25,43.25,0,0,1-17,3.32H256V301.45h.32a43.25,43.25,0,0,1,17,3.32,44.62,44.62,0,0,1,13.81,9.09,41.73,41.73,0,0,1,9.26,13.45,41.1,41.1,0,0,1,3.32,16.43,41.88,41.88,0,0,1-3.32,16.78,39.67,39.67,0,0,1-9.26,13.28A46.19,46.19,0,0,1,273.28,382.72Z"/><path class="cls-4" d="M256,482v30C115.3,512,0,396.7,0,256S115.3,0,256,0V30C131.18,30,30,131.19,30,256S131.18,482,256,482Z"/><path class="cls-4" d="M256,301.45V386a43.14,43.14,0,0,1-16.63-3.32,46,46,0,0,1-13.8-8.92,39.13,39.13,0,0,1-9.27-13.28A41.71,41.71,0,0,1,213,343.74a41.23,41.23,0,0,1,12.59-29.88,44.46,44.46,0,0,1,13.8-9.09A43.14,43.14,0,0,1,256,301.45Z"/><path class="cls-4" d="M256,222.56v69.8H228a9.09,9.09,0,0,1-9.08-9.08v-3.85a58.37,58.37,0,0,1,2.62-18.36,52.18,52.18,0,0,1,7.17-14.15,67.55,67.55,0,0,1,10.83-11.71q6.3-5.42,13.64-10.66Z"/><path class="cls-4" d="M256,126v65.71h0q-11.55,0-16.44,8.21a34.36,34.36,0,0,0-4.11,10.8c-.93,4.67-5.62,7.62-10.34,7l-56.55-7.37a9.12,9.12,0,0,1-7.81-10.55,89.36,89.36,0,0,1,9.77-28.9A80.89,80.89,0,0,1,192.88,145a89.94,89.94,0,0,1,30.06-14.5A129.6,129.6,0,0,1,256,126Z"/><path class="cls-2" d="M30,256C30,131.19,131.18,30,256,30v96a129.6,129.6,0,0,0-33.06,4.54A89.94,89.94,0,0,0,192.88,145a80.89,80.89,0,0,0-22.38,25.87,89.36,89.36,0,0,0-9.77,28.9,9.12,9.12,0,0,0,7.81,10.55l56.55,7.37c4.72.61,9.41-2.34,10.34-7a34.36,34.36,0,0,1,4.11-10.8q4.89-8.21,16.44-8.21h0v30.87l-2.82,2q-7.35,5.23-13.64,10.66a67.55,67.55,0,0,0-10.83,11.71,52.18,52.18,0,0,0-7.17,14.15,58.37,58.37,0,0,0-2.62,18.36v3.85a9.09,9.09,0,0,0,9.08,9.08h28v9.09a43.14,43.14,0,0,0-16.63,3.32,44.46,44.46,0,0,0-13.8,9.09A41.23,41.23,0,0,0,213,343.74a41.71,41.71,0,0,0,3.32,16.78,39.13,39.13,0,0,0,9.27,13.28,46,46,0,0,0,13.8,8.92A43.14,43.14,0,0,0,256,386v96C131.18,482,30,380.82,30,256Z"/></svg>